<mxfile host="app.diagrams.net" modified="2023-06-28T21:41:49.396Z" agent="Mozilla/5.0 (Macintosh; Intel Mac OS X 10_15_7) AppleWebKit/537.36 (KHTML, like Gecko) Chrome/114.0.0.0 Safari/537.36" etag="8WvPOEJRYtm2st2YnMGb" version="21.5.1" type="device">
  <diagram name="Strona-1" id="tLMkY7_Bq3wqrqZynxXe">
    <mxGraphModel dx="1063" dy="544" grid="1" gridSize="10" guides="1" tooltips="1" connect="1" arrows="1" fold="1" page="1" pageScale="1" pageWidth="827" pageHeight="1169" math="0" shadow="0">
      <root>
        <mxCell id="0" />
        <mxCell id="1" parent="0" />
        <mxCell id="N1rXnFMn6H7FmfmCnCnM-1" value="" style="rounded=0;whiteSpace=wrap;html=1;" vertex="1" parent="1">
          <mxGeometry x="380" y="220" width="180" height="60" as="geometry" />
        </mxCell>
        <mxCell id="N1rXnFMn6H7FmfmCnCnM-2" value="Konfiguracja automatycznej stacji meterologicznej" style="text;html=1;strokeColor=none;fillColor=none;align=center;verticalAlign=middle;whiteSpace=wrap;rounded=0;" vertex="1" parent="1">
          <mxGeometry x="400" y="235" width="150" height="30" as="geometry" />
        </mxCell>
        <mxCell id="N1rXnFMn6H7FmfmCnCnM-5" value="" style="endArrow=classic;html=1;rounded=0;entryX=0.5;entryY=1;entryDx=0;entryDy=0;" edge="1" parent="1" target="N1rXnFMn6H7FmfmCnCnM-1">
          <mxGeometry width="50" height="50" relative="1" as="geometry">
            <mxPoint x="470" y="400" as="sourcePoint" />
            <mxPoint x="495" y="350" as="targetPoint" />
          </mxGeometry>
        </mxCell>
        <mxCell id="N1rXnFMn6H7FmfmCnCnM-6" value="Inne systemy lub urządzenia" style="shape=umlActor;verticalLabelPosition=bottom;verticalAlign=top;html=1;outlineConnect=0;" vertex="1" parent="1">
          <mxGeometry x="455" y="400" width="30" height="60" as="geometry" />
        </mxCell>
        <mxCell id="N1rXnFMn6H7FmfmCnCnM-7" value="" style="endArrow=classic;html=1;rounded=0;" edge="1" parent="1">
          <mxGeometry width="50" height="50" relative="1" as="geometry">
            <mxPoint x="470" y="220" as="sourcePoint" />
            <mxPoint x="470" y="100" as="targetPoint" />
          </mxGeometry>
        </mxCell>
        <mxCell id="N1rXnFMn6H7FmfmCnCnM-8" value="" style="rounded=0;whiteSpace=wrap;html=1;" vertex="1" parent="1">
          <mxGeometry x="410" y="40" width="120" height="60" as="geometry" />
        </mxCell>
        <mxCell id="N1rXnFMn6H7FmfmCnCnM-9" value="Wybór częstotliwości aktualizacji" style="text;html=1;strokeColor=none;fillColor=none;align=center;verticalAlign=middle;whiteSpace=wrap;rounded=0;" vertex="1" parent="1">
          <mxGeometry x="410" y="55" width="120" height="30" as="geometry" />
        </mxCell>
        <mxCell id="N1rXnFMn6H7FmfmCnCnM-10" value="" style="endArrow=classic;html=1;rounded=0;exitX=0.593;exitY=-0.021;exitDx=0;exitDy=0;exitPerimeter=0;" edge="1" parent="1" source="N1rXnFMn6H7FmfmCnCnM-1">
          <mxGeometry width="50" height="50" relative="1" as="geometry">
            <mxPoint x="510" y="220" as="sourcePoint" />
            <mxPoint x="590" y="120" as="targetPoint" />
          </mxGeometry>
        </mxCell>
        <mxCell id="N1rXnFMn6H7FmfmCnCnM-11" value="" style="rounded=0;whiteSpace=wrap;html=1;" vertex="1" parent="1">
          <mxGeometry x="570" y="55" width="120" height="60" as="geometry" />
        </mxCell>
        <mxCell id="N1rXnFMn6H7FmfmCnCnM-12" value="Wybór język i regionu" style="text;html=1;strokeColor=none;fillColor=none;align=center;verticalAlign=middle;whiteSpace=wrap;rounded=0;" vertex="1" parent="1">
          <mxGeometry x="570" y="70" width="120" height="30" as="geometry" />
        </mxCell>
        <mxCell id="N1rXnFMn6H7FmfmCnCnM-13" value="" style="endArrow=classic;html=1;rounded=0;exitX=0.843;exitY=0.012;exitDx=0;exitDy=0;exitPerimeter=0;entryX=0;entryY=0.5;entryDx=0;entryDy=0;" edge="1" parent="1" source="N1rXnFMn6H7FmfmCnCnM-1" target="N1rXnFMn6H7FmfmCnCnM-14">
          <mxGeometry width="50" height="50" relative="1" as="geometry">
            <mxPoint x="560" y="250" as="sourcePoint" />
            <mxPoint x="670" y="180" as="targetPoint" />
          </mxGeometry>
        </mxCell>
        <mxCell id="N1rXnFMn6H7FmfmCnCnM-14" value="" style="rounded=0;whiteSpace=wrap;html=1;" vertex="1" parent="1">
          <mxGeometry x="670" y="130" width="120" height="60" as="geometry" />
        </mxCell>
        <mxCell id="N1rXnFMn6H7FmfmCnCnM-15" value="Wybór rodzaju połączenia" style="text;html=1;strokeColor=none;fillColor=none;align=center;verticalAlign=middle;whiteSpace=wrap;rounded=0;" vertex="1" parent="1">
          <mxGeometry x="680" y="145" width="100" height="30" as="geometry" />
        </mxCell>
        <mxCell id="N1rXnFMn6H7FmfmCnCnM-16" value="" style="endArrow=classic;html=1;rounded=0;exitX=1;exitY=0;exitDx=0;exitDy=0;" edge="1" parent="1" source="N1rXnFMn6H7FmfmCnCnM-1">
          <mxGeometry width="50" height="50" relative="1" as="geometry">
            <mxPoint x="620" y="270" as="sourcePoint" />
            <mxPoint x="670" y="220" as="targetPoint" />
          </mxGeometry>
        </mxCell>
        <mxCell id="N1rXnFMn6H7FmfmCnCnM-17" value="" style="rounded=0;whiteSpace=wrap;html=1;" vertex="1" parent="1">
          <mxGeometry x="670" y="205" width="120" height="60" as="geometry" />
        </mxCell>
        <mxCell id="N1rXnFMn6H7FmfmCnCnM-18" value="Wybór preferencji danych" style="text;html=1;strokeColor=none;fillColor=none;align=center;verticalAlign=middle;whiteSpace=wrap;rounded=0;" vertex="1" parent="1">
          <mxGeometry x="670" y="220" width="120" height="30" as="geometry" />
        </mxCell>
        <mxCell id="N1rXnFMn6H7FmfmCnCnM-19" value="" style="endArrow=classic;html=1;rounded=0;exitX=0.388;exitY=-0.054;exitDx=0;exitDy=0;exitPerimeter=0;" edge="1" parent="1" source="N1rXnFMn6H7FmfmCnCnM-1">
          <mxGeometry width="50" height="50" relative="1" as="geometry">
            <mxPoint x="320" y="190" as="sourcePoint" />
            <mxPoint x="340" y="120" as="targetPoint" />
          </mxGeometry>
        </mxCell>
        <mxCell id="N1rXnFMn6H7FmfmCnCnM-20" value="" style="rounded=0;whiteSpace=wrap;html=1;" vertex="1" parent="1">
          <mxGeometry x="230" y="55" width="120" height="60" as="geometry" />
        </mxCell>
        <mxCell id="N1rXnFMn6H7FmfmCnCnM-21" value="Ustawienia stacji" style="text;html=1;strokeColor=none;fillColor=none;align=center;verticalAlign=middle;whiteSpace=wrap;rounded=0;" vertex="1" parent="1">
          <mxGeometry x="230" y="70" width="120" height="30" as="geometry" />
        </mxCell>
        <mxCell id="N1rXnFMn6H7FmfmCnCnM-22" value="" style="endArrow=classic;html=1;rounded=0;exitX=0.25;exitY=0;exitDx=0;exitDy=0;entryX=1;entryY=0.5;entryDx=0;entryDy=0;" edge="1" parent="1" source="N1rXnFMn6H7FmfmCnCnM-1" target="N1rXnFMn6H7FmfmCnCnM-24">
          <mxGeometry width="50" height="50" relative="1" as="geometry">
            <mxPoint x="250" y="310" as="sourcePoint" />
            <mxPoint x="290" y="180" as="targetPoint" />
          </mxGeometry>
        </mxCell>
        <mxCell id="N1rXnFMn6H7FmfmCnCnM-23" value="" style="rounded=0;whiteSpace=wrap;html=1;" vertex="1" parent="1">
          <mxGeometry x="170" y="130" width="120" height="60" as="geometry" />
        </mxCell>
        <mxCell id="N1rXnFMn6H7FmfmCnCnM-24" value="Pobieranie i wysyłanie danych" style="text;html=1;strokeColor=none;fillColor=none;align=center;verticalAlign=middle;whiteSpace=wrap;rounded=0;" vertex="1" parent="1">
          <mxGeometry x="170" y="145" width="120" height="30" as="geometry" />
        </mxCell>
        <mxCell id="N1rXnFMn6H7FmfmCnCnM-25" value="" style="rounded=0;whiteSpace=wrap;html=1;" vertex="1" parent="1">
          <mxGeometry x="140" y="205" width="120" height="60" as="geometry" />
        </mxCell>
        <mxCell id="N1rXnFMn6H7FmfmCnCnM-26" value="" style="endArrow=classic;html=1;rounded=0;entryX=1;entryY=0.25;entryDx=0;entryDy=0;exitX=0;exitY=0;exitDx=0;exitDy=0;" edge="1" parent="1" source="N1rXnFMn6H7FmfmCnCnM-1" target="N1rXnFMn6H7FmfmCnCnM-25">
          <mxGeometry width="50" height="50" relative="1" as="geometry">
            <mxPoint x="280" y="360" as="sourcePoint" />
            <mxPoint x="330" y="310" as="targetPoint" />
          </mxGeometry>
        </mxCell>
        <mxCell id="N1rXnFMn6H7FmfmCnCnM-27" value="Monitorowanie połączenia" style="text;html=1;strokeColor=none;fillColor=none;align=center;verticalAlign=middle;whiteSpace=wrap;rounded=0;" vertex="1" parent="1">
          <mxGeometry x="150" y="220" width="100" height="30" as="geometry" />
        </mxCell>
        <mxCell id="N1rXnFMn6H7FmfmCnCnM-28" value="" style="endArrow=classic;startArrow=classic;html=1;rounded=0;" edge="1" parent="1">
          <mxGeometry width="50" height="50" relative="1" as="geometry">
            <mxPoint x="280" y="330" as="sourcePoint" />
            <mxPoint x="380" y="250" as="targetPoint" />
          </mxGeometry>
        </mxCell>
        <mxCell id="N1rXnFMn6H7FmfmCnCnM-29" value="Administrator systemu" style="shape=umlActor;verticalLabelPosition=bottom;verticalAlign=top;html=1;outlineConnect=0;" vertex="1" parent="1">
          <mxGeometry x="260" y="330" width="30" height="60" as="geometry" />
        </mxCell>
        <mxCell id="N1rXnFMn6H7FmfmCnCnM-32" value="" style="endArrow=classic;html=1;rounded=0;entryX=1;entryY=0.5;entryDx=0;entryDy=0;" edge="1" parent="1" target="N1rXnFMn6H7FmfmCnCnM-1">
          <mxGeometry width="50" height="50" relative="1" as="geometry">
            <mxPoint x="650" y="340" as="sourcePoint" />
            <mxPoint x="660" y="360" as="targetPoint" />
          </mxGeometry>
        </mxCell>
        <mxCell id="N1rXnFMn6H7FmfmCnCnM-33" value="Użytkownicy stacji meteorologicznej" style="shape=umlActor;verticalLabelPosition=bottom;verticalAlign=top;html=1;outlineConnect=0;" vertex="1" parent="1">
          <mxGeometry x="640" y="340" width="30" height="60" as="geometry" />
        </mxCell>
        <mxCell id="N1rXnFMn6H7FmfmCnCnM-37" value="&amp;lt;&amp;lt;include&amp;gt;&amp;gt;" style="text;html=1;strokeColor=none;fillColor=none;align=center;verticalAlign=middle;whiteSpace=wrap;rounded=0;" vertex="1" parent="1">
          <mxGeometry x="280" y="205" width="50" height="10" as="geometry" />
        </mxCell>
        <mxCell id="N1rXnFMn6H7FmfmCnCnM-43" value="&amp;lt;&amp;lt;include&amp;gt;&amp;gt;" style="text;html=1;strokeColor=none;fillColor=none;align=center;verticalAlign=middle;whiteSpace=wrap;rounded=0;" vertex="1" parent="1">
          <mxGeometry x="320" y="165" width="50" height="10" as="geometry" />
        </mxCell>
        <mxCell id="N1rXnFMn6H7FmfmCnCnM-44" value="&amp;lt;&amp;lt;include&amp;gt;&amp;gt;" style="text;html=1;strokeColor=none;fillColor=none;align=center;verticalAlign=middle;whiteSpace=wrap;rounded=0;" vertex="1" parent="1">
          <mxGeometry x="380" y="140" width="50" height="10" as="geometry" />
        </mxCell>
        <mxCell id="N1rXnFMn6H7FmfmCnCnM-49" value="&amp;lt;&amp;lt;include&amp;gt;&amp;gt;" style="text;html=1;strokeColor=none;fillColor=none;align=center;verticalAlign=middle;whiteSpace=wrap;rounded=0;" vertex="1" parent="1">
          <mxGeometry x="480" y="135" width="50" height="10" as="geometry" />
        </mxCell>
        <mxCell id="N1rXnFMn6H7FmfmCnCnM-50" value="&amp;lt;&amp;lt;include&amp;gt;&amp;gt;" style="text;html=1;strokeColor=none;fillColor=none;align=center;verticalAlign=middle;whiteSpace=wrap;rounded=0;" vertex="1" parent="1">
          <mxGeometry x="560" y="155" width="50" height="10" as="geometry" />
        </mxCell>
        <mxCell id="N1rXnFMn6H7FmfmCnCnM-51" value="&amp;lt;&amp;lt;include&amp;gt;&amp;gt;" style="text;html=1;strokeColor=none;fillColor=none;align=center;verticalAlign=middle;whiteSpace=wrap;rounded=0;" vertex="1" parent="1">
          <mxGeometry x="610" y="190" width="50" height="10" as="geometry" />
        </mxCell>
        <mxCell id="N1rXnFMn6H7FmfmCnCnM-52" value="&amp;lt;&amp;lt;include&amp;gt;&amp;gt;" style="text;html=1;strokeColor=none;fillColor=none;align=center;verticalAlign=middle;whiteSpace=wrap;rounded=0;" vertex="1" parent="1">
          <mxGeometry x="600" y="225" width="50" height="10" as="geometry" />
        </mxCell>
      </root>
    </mxGraphModel>
  </diagram>
</mxfile>
